HIERARCHY
ROOT Hips
{
	OFFSET 0.000000 0.000000 0.000000
	CHANNELS 6 Xposition Yposition Zposition Zrotation Yrotation Xrotation 
	JOINT LowerBack
	{
		OFFSET 0.000000 0.000000 0.000000
		CHANNELS 3 Zrotation Yrotation Xrotation
		JOINT Spine
		{
			OFFSET 0.028270 2.035590 -0.193380
			CHANNELS 3 Zrotation Yrotation Xrotation
			JOINT Spine1
			{
				OFFSET 0.056720 2.048850 -0.042750
				CHANNELS 3 Zrotation Yrotation Xrotation
				JOINT Neck
				{
					OFFSET 0.000000 0.000000 0.000000
					CHANNELS 3 Zrotation Yrotation Xrotation
					JOINT Neck1
					{
						OFFSET -0.054170 1.746240 0.172020
						CHANNELS 3 Zrotation Yrotation Xrotation
						JOINT Head
						{
							OFFSET 0.104070 1.761360 -0.123970
							CHANNELS 3 Zrotation Yrotation Xrotation
							End Site
							{
								OFFSET 0.000000 0.000000 0.000000
							}
						}
					}
				}
				JOINT LeftShoulder
				{
					OFFSET 0.000000 0.000000 0.000000
					CHANNELS 3 Zrotation Yrotation Xrotation
					JOINT LeftArm
					{
						OFFSET 3.362410 1.200890 -0.311210
						CHANNELS 3 Zrotation Yrotation Xrotation
						JOINT LeftForeArm
						{
							OFFSET 4.983000 -0.000000 -0.000000
							CHANNELS 3 Zrotation Yrotation Xrotation
							JOINT LeftHand
							{
								OFFSET 3.483560 -0.000000 -0.000000
								CHANNELS 3 Zrotation Yrotation Xrotation
								JOINT LeftFingerBase
								{
									OFFSET 0.000000 0.000000 0.000000
									CHANNELS 3 Zrotation Yrotation Xrotation
									JOINT LeftHandIndex1
									{
										OFFSET 0.715260 -0.000000 -0.000000
										CHANNELS 3 Zrotation Yrotation Xrotation
										End Site
										{
											OFFSET 0.000000 0.000000 0.000000
										}
									}
								}
								JOINT LThumb
								{
									OFFSET 0.000000 0.000000 0.000000
									CHANNELS 3 Zrotation Yrotation Xrotation
									End Site
									{
										OFFSET 0.000000 0.000000 0.000000
									}
								}
							}
						}
					}
				}
				JOINT RightShoulder
				{
					OFFSET 0.000000 0.000000 0.000000
					CHANNELS 3 Zrotation Yrotation Xrotation
					JOINT RightArm
					{
						OFFSET -3.136600 1.374050 -0.404650
						CHANNELS 3 Zrotation Yrotation Xrotation
						JOINT RightForeArm
						{
							OFFSET -5.241900 -0.000000 -0.000000
							CHANNELS 3 Zrotation Yrotation Xrotation
							JOINT RightHand
							{
								OFFSET -3.444170 -0.000000 -0.000000
								CHANNELS 3 Zrotation Yrotation Xrotation
								JOINT RightFingerBase
								{
									OFFSET 0.000000 0.000000 0.000000
									CHANNELS 3 Zrotation Yrotation Xrotation
									JOINT RightHandIndex1
									{
										OFFSET -0.622530 -0.000000 -0.000000
										CHANNELS 3 Zrotation Yrotation Xrotation
										End Site
										{
											OFFSET 0.000000 0.000000 0.000000
										}
									}
								}
								JOINT RThumb
								{
									OFFSET 0.000000 0.000000 0.000000
									CHANNELS 3 Zrotation Yrotation Xrotation
									End Site
									{
										OFFSET 0.000000 0.000000 0.000000
									}
								}
							}
						}
					}
				}
			}
		}
	}
}
}
MOTION
Frames: 11
Frame Time: 0.008333
27.276810 16.748859 4.611907 -137.771294 -88.189358 155.327251 4.649984 -3.205482 -3.711895 0.213858 -3.767325 -3.511487 -7.511939 -3.841353 1.209312 9.603458 -8.445208 -7.308312 -4.343710 -0.334274 0.066742 0.000000 0.000000 0.000000 -7.686860 4.493407 1.824572 -60.585664 -12.755427 14.144811 -3.058666 -38.716580 -0.010944 5.387116 1.429629 0.064676 -0.121010 0.107297 0.000000 0.000000 0.000000 0.000000 0.000000 0.000000 0.000000 19.185043 -8.011825 1.051422 64.148534 -7.007561 -10.839300 4.185505 14.296013 0.008936 0.518835 4.038394 0.014538 0.115957 -0.032777 -0.000000 0.000000 0.000000 0.000000 0.000000 0.000000 0.000000 
27.127623 16.775398 4.576145 -130.148294 -88.022901 147.590555 5.073140 -3.173187 -3.699809 0.295624 -3.765907 -3.520686 -7.480608 -3.840178 1.195190 9.525796 -8.274682 -7.293445 -4.348717 -0.335062 0.071720 0.000000 0.000000 0.000000 -7.810007 4.635679 1.801339 -61.117568 -12.260884 13.869660 -3.052814 -37.970136 -0.010770 5.480949 1.422473 0.065531 -0.117474 0.103743 0.000000 0.000000 0.000000 0.000000 0.000000 0.000000 0.000000 19.080955 -7.832020 1.046191 64.007750 -6.792443 -11.151012 4.212926 13.808280 0.009068 0.399815 4.083593 0.010437 0.117445 -0.033386 -0.000000 0.000000 0.000000 0.000000 0.000000 0.000000 0.000000 
26.979501 16.803756 4.538281 -125.162273 -87.808256 142.480863 5.449028 -3.134939 -3.672933 0.365819 -3.754058 -3.526460 -7.451591 -3.828612 1.178874 9.466389 -8.085972 -7.271373 -4.354277 -0.335936 0.078408 0.000000 0.000000 0.000000 -7.868077 4.777404 1.778618 -61.680517 -11.735891 13.558445 -3.043171 -37.185836 -0.010622 5.581650 1.436266 0.067481 -0.113673 0.100035 0.000000 0.000000 0.000000 0.000000 0.000000 0.000000 0.000000 18.994585 -7.630412 1.040718 63.895822 -6.527911 -11.426340 4.237756 13.298868 0.009205 0.287403 4.136228 0.006436 0.118742 -0.034060 -0.000000 0.000000 0.000000 0.000000 0.000000 0.000000 0.000000 
26.832828 16.833486 4.498446 -121.693024 -87.579749 138.878838 5.782491 -3.097132 -3.632103 0.427102 -3.738607 -3.528557 -7.424605 -3.813627 1.162741 9.424437 -7.891245 -7.243358 -4.359836 -0.336843 0.086577 0.000000 0.000000 0.000000 -7.865842 4.907503 1.757034 -62.264373 -11.182274 13.225023 -3.030184 -36.376371 -0.010491 5.679347 1.474252 0.070630 -0.109678 0.096221 0.000000 0.000000 0.000000 0.000000 0.000000 0.000000 0.000000 18.925323 -7.423249 1.035199 63.811951 -6.204679 -11.640366 4.259013 12.773780 0.009333 0.172930 4.190654 0.002235 0.119879 -0.034743 -0.000000 0.000000 0.000000 0.000000 0.000000 0.000000 0.000000 
26.687844 16.864180 4.457268 -118.880439 -87.351338 135.920526 6.088102 -3.063296 -3.576003 0.482501 -3.723950 -3.527627 -7.400037 -3.799613 1.144874 9.393789 -7.675876 -7.205058 -4.365894 -0.337844 0.097396 0.000000 0.000000 0.000000 -7.819565 5.026416 1.739991 -62.852619 -10.613471 12.898750 -3.015364 -35.550243 -0.010367 5.763996 1.539829 0.075078 -0.105634 0.092393 0.000000 0.000000 0.000000 0.000000 0.000000 0.000000 0.000000 18.866407 -7.196277 1.029603 63.763524 -5.846481 -11.836491 4.276851 12.255229 0.009432 0.065550 4.236148 -0.001765 0.120806 -0.035457 -0.000000 0.000000 0.000000 0.000000 0.000000 0.000000 0.000000 
26.544404 16.895388 4.414189 -116.619897 -87.149422 133.515185 6.340926 -3.035911 -3.520064 0.527331 -3.711724 -3.525429 -7.378532 -3.788206 1.128527 9.379764 -7.462162 -7.160265 -4.372635 -0.338956 0.110062 0.000000 0.000000 0.000000 -7.725236 5.121567 1.725780 -63.433051 -10.019919 12.592801 -2.999224 -34.726886 -0.010223 5.823751 1.631539 0.080727 -0.101586 0.088499 0.000000 0.000000 0.000000 0.000000 0.000000 0.000000 0.000000 18.829373 -6.973933 1.023567 63.744935 -5.442417 -11.967874 4.289924 11.751128 0.009488 -0.046000 4.269198 -0.006066 0.121561 -0.036116 -0.000000 0.000000 0.000000 0.000000 0.000000 0.000000 0.000000 
26.402767 16.926754 4.369740 -114.565578 -86.980250 131.317177 6.546640 -3.015335 -3.466510 0.562766 -3.702838 -3.521915 -7.359667 -3.780139 1.116007 9.378854 -7.266703 -7.113361 -4.379432 -0.340100 0.123443 0.000000 0.000000 0.000000 -7.597074 5.191452 1.713675 -63.993559 -9.409514 12.327919 -2.982597 -33.920393 -0.010040 5.847329 1.747602 0.087178 -0.097615 0.084557 0.000000 0.000000 0.000000 0.000000 0.000000 0.000000 0.000000 18.811308 -6.773295 1.017395 63.751272 -4.979289 -12.004629 4.298077 11.266932 0.009497 -0.168662 4.288033 -0.010765 0.122201 -0.036691 -0.000000 0.000000 0.000000 0.000000 0.000000 0.000000 0.000000 
26.262781 16.957923 4.324720 -112.436885 -86.840223 129.047718 6.721172 -3.000926 -3.415893 0.591168 -3.697965 -3.518923 -7.346137 -3.776098 1.101430 9.387097 -7.058374 -7.056054 -4.388622 -0.341509 0.139685 0.000000 0.000000 0.000000 -7.450791 5.239958 1.707342 -64.521237 -8.787685 12.129994 -2.966549 -33.143014 -0.009813 5.827061 1.886985 0.094132 -0.093792 0.080633 0.000000 0.000000 0.000000 0.000000 0.000000 0.000000 0.000000 18.810235 -6.561775 1.009126 63.777071 -4.496384 -12.076298 4.309021 10.779578 0.009744 -0.215397 4.410450 -0.012863 0.122386 -0.037678 -0.000000 0.000000 0.000000 0.000000 0.000000 0.000000 0.000000 
26.124699 16.988617 4.279159 -110.277512 -86.737900 126.754885 6.854639 -2.990030 -3.373866 0.611355 -3.694043 -3.516401 -7.334195 -3.773048 1.089212 9.399546 -6.870764 -6.997957 -4.397836 -0.342945 0.156314 0.000000 0.000000 0.000000 -7.297331 5.259783 1.703662 -65.006999 -8.155765 12.009449 -2.951742 -32.409608 -0.009529 5.756455 2.042756 0.101091 -0.090206 0.076699 0.000000 0.000000 0.000000 0.000000 0.000000 0.000000 0.000000 18.821590 -6.370546 1.004097 63.836030 -3.979269 -12.011683 4.308671 10.395896 0.009642 -0.332002 4.388741 -0.017362 0.122676 -0.038197 -0.000000 0.000000 0.000000 0.000000 0.000000 0.000000 0.000000 
25.988302 17.018590 4.233637 -108.018174 -86.667039 124.370842 6.956083 -2.981146 -3.338656 0.624678 -3.690235 -3.513552 -7.325415 -3.769914 1.081285 9.417166 -6.712980 -6.943916 -4.407559 -0.344390 0.171911 0.000000 0.000000 0.000000 -7.147385 5.263073 1.701314 -65.446214 -7.528025 11.980292 -2.938554 -31.727009 -0.009183 5.633778 2.207921 0.107354 -0.086890 0.072760 0.000000 0.000000 0.000000 0.000000 0.000000 0.000000 0.000000 18.848783 -6.208694 0.999916 63.908081 -3.410493 -11.844835 4.304513 10.062448 0.009505 -0.450011 4.355282 -0.021760 0.122858 -0.038667 -0.000000 0.000000 0.000000 0.000000 0.000000 0.000000 0.000000 
25.853844 17.047717 4.188746 -105.634751 -86.618063 121.868494 7.037751 -2.970474 -3.308415 0.633202 -3.683534 -3.512773 -7.319677 -3.764022 1.067971 9.431380 -6.542717 -6.882191 -4.419089 -0.346033 0.189572 0.000000 0.000000 0.000000 -7.013462 5.242446 1.704321 -65.832629 -6.893383 12.044779 -2.926808 -31.109868 -0.008788 5.460838 2.377735 0.112423 -0.083836 0.068873 0.000000 0.000000 0.000000 0.000000 0.000000 0.000000 0.000000 18.880368 -6.029059 1.000381 64.009905 -2.844308 -11.677611 4.295990 9.824884 0.009144 -0.553792 4.219957 -0.024859 0.122853 -0.038997 -0.000000 0.000000 0.000000 0.000000 0.000000 0.000000 0.000000 
